<svg width="16" height="16" viewBox="0 0 16 16" fill="none" xmlns="http://www.w3.org/2000/svg">
<path fill-rule="evenodd" clip-rule="evenodd" d="M8.00001 1.00098C8.29194 1.00098 8.56929 1.12854 8.75927 1.35019L14.7593 8.35019C15.0134 8.6467 15.0717 9.06403 14.9085 9.41883C14.7453 9.77363 14.3905 10.001 14 10.001H10.994V12.001H8.994V9.00098C8.994 8.44869 9.44171 8.00098 9.994 8.00098H11.8258L8.00001 3.53757L4.17423 8.00098H5.99386C6.54614 8.00098 6.99386 8.44869 6.99386 9.00098V12.001H4.99386V10.001H2.00001C1.60948 10.001 1.25469 9.77363 1.0915 9.41883C0.928316 9.06403 0.986604 8.6467 1.24076 8.35019L7.24076 1.35019C7.43074 1.12854 7.70809 1.00098 8.00001 1.00098ZM15 13.001V15.001H1.00001V13.001H15Z" fill="white"/>
</svg>
